<mxfile host="app.diagrams.net" agent="Mozilla/5.0 (Windows NT 10.0; Win64; x64) AppleWebKit/537.36 (KHTML, like Gecko) Chrome/118.0.0.0 Safari/537.36" version="28.0.6">
  <diagram name="第 1 页" id="fIbPTTzMzk3BGhx-KFtS">
    <mxGraphModel dx="1773" dy="862" grid="1" gridSize="10" guides="1" tooltips="1" connect="1" arrows="1" fold="1" page="1" pageScale="1" pageWidth="827" pageHeight="1169" math="0" shadow="0">
      <root>
        <mxCell id="0" />
        <mxCell id="1" parent="0" />
        <mxCell id="8vCnK32GKlkzvUL6mrDK-2" style="edgeStyle=orthogonalEdgeStyle;rounded=0;orthogonalLoop=1;jettySize=auto;html=1;exitX=0.5;exitY=1;exitDx=0;exitDy=0;" parent="1" edge="1">
          <mxGeometry relative="1" as="geometry">
            <mxPoint x="255.75" y="60" as="sourcePoint" />
            <mxPoint x="255.75" y="60" as="targetPoint" />
          </mxGeometry>
        </mxCell>
        <mxCell id="ps8bgpGyB-CreJivMz2w-1" value="&lt;b&gt;4阶B+树，每个节点最多3个键，最少1个键（根节点除外）&lt;/b&gt;" style="text;strokeColor=none;align=center;fillColor=none;html=1;verticalAlign=middle;whiteSpace=wrap;rounded=0;" parent="1" vertex="1">
          <mxGeometry x="80" y="60" width="320" height="20" as="geometry" />
        </mxCell>
        <mxCell id="ps8bgpGyB-CreJivMz2w-25" value="5" style="ellipse;whiteSpace=wrap;html=1;aspect=fixed;fillColor=#66FF66;" parent="1" vertex="1">
          <mxGeometry x="220" y="120" width="80" height="80" as="geometry" />
        </mxCell>
        <mxCell id="ps8bgpGyB-CreJivMz2w-26" value="5，8" style="ellipse;whiteSpace=wrap;html=1;aspect=fixed;fillColor=#66FF66;" parent="1" vertex="1">
          <mxGeometry x="440" y="120" width="80" height="80" as="geometry" />
        </mxCell>
        <mxCell id="ps8bgpGyB-CreJivMz2w-27" value="1，5，8" style="ellipse;whiteSpace=wrap;html=1;aspect=fixed;fillColor=#66FF66;" parent="1" vertex="1">
          <mxGeometry x="650" y="120" width="80" height="80" as="geometry" />
        </mxCell>
        <mxCell id="ps8bgpGyB-CreJivMz2w-38" value="&lt;b&gt;插入3&lt;/b&gt;" style="text;strokeColor=none;align=center;fillColor=none;html=1;verticalAlign=middle;whiteSpace=wrap;rounded=0;" parent="1" vertex="1">
          <mxGeometry x="561.8500000000001" y="290" width="36.3" height="20" as="geometry" />
        </mxCell>
        <mxCell id="ps8bgpGyB-CreJivMz2w-40" value="&lt;b&gt;插入1&lt;/b&gt;" style="text;strokeColor=none;align=center;fillColor=none;html=1;verticalAlign=middle;whiteSpace=wrap;rounded=0;" parent="1" vertex="1">
          <mxGeometry x="670" y="90" width="40" height="20" as="geometry" />
        </mxCell>
        <mxCell id="ps8bgpGyB-CreJivMz2w-41" value="&lt;b&gt;插入8&lt;/b&gt;" style="text;strokeColor=none;align=center;fillColor=none;html=1;verticalAlign=middle;whiteSpace=wrap;rounded=0;" parent="1" vertex="1">
          <mxGeometry x="460" y="90" width="40" height="20" as="geometry" />
        </mxCell>
        <mxCell id="ps8bgpGyB-CreJivMz2w-42" value="&lt;b&gt;插入5&lt;/b&gt;" style="text;strokeColor=none;align=center;fillColor=none;html=1;verticalAlign=middle;whiteSpace=wrap;rounded=0;" parent="1" vertex="1">
          <mxGeometry x="240" y="90" width="40" height="20" as="geometry" />
        </mxCell>
        <mxCell id="ps8bgpGyB-CreJivMz2w-43" value="&lt;b&gt;初始空树&lt;/b&gt;" style="text;strokeColor=none;align=center;fillColor=none;html=1;verticalAlign=middle;whiteSpace=wrap;rounded=0;" parent="1" vertex="1">
          <mxGeometry x="60" y="150" width="50" height="20" as="geometry" />
        </mxCell>
        <mxCell id="ps8bgpGyB-CreJivMz2w-51" value="&lt;b&gt;插入9 → 分裂叶子节点&lt;/b&gt;" style="text;strokeColor=none;align=center;fillColor=none;html=1;verticalAlign=middle;whiteSpace=wrap;rounded=0;" parent="1" vertex="1">
          <mxGeometry x="510.00000000000006" y="670" width="127.59" height="20" as="geometry" />
        </mxCell>
        <mxCell id="ps8bgpGyB-CreJivMz2w-52" value="&lt;b&gt;插入12&lt;/b&gt;" style="text;strokeColor=none;align=center;fillColor=none;html=1;verticalAlign=middle;whiteSpace=wrap;rounded=0;" parent="1" vertex="1">
          <mxGeometry x="215" y="670" width="50" height="20" as="geometry" />
        </mxCell>
        <mxCell id="ps8bgpGyB-CreJivMz2w-64" value="" style="group" parent="1" vertex="1" connectable="0">
          <mxGeometry x="421.9" y="700" width="316.21000000000004" height="250" as="geometry" />
        </mxCell>
        <mxCell id="ps8bgpGyB-CreJivMz2w-54" value="7，9" style="ellipse;whiteSpace=wrap;html=1;aspect=fixed;fillColor=#CCFFCC;" parent="ps8bgpGyB-CreJivMz2w-64" vertex="1">
          <mxGeometry x="109.91000000000003" width="80" height="80" as="geometry" />
        </mxCell>
        <mxCell id="ps8bgpGyB-CreJivMz2w-55" value="1，3，5" style="ellipse;whiteSpace=wrap;html=1;aspect=fixed;fillColor=#66FF66;" parent="ps8bgpGyB-CreJivMz2w-64" vertex="1">
          <mxGeometry y="170" width="80" height="80" as="geometry" />
        </mxCell>
        <mxCell id="ps8bgpGyB-CreJivMz2w-56" value="7，8" style="ellipse;whiteSpace=wrap;html=1;aspect=fixed;fillColor=#66FF66;" parent="ps8bgpGyB-CreJivMz2w-64" vertex="1">
          <mxGeometry x="116.21000000000001" y="170" width="80" height="80" as="geometry" />
        </mxCell>
        <mxCell id="ps8bgpGyB-CreJivMz2w-57" value="" style="endArrow=none;html=1;rounded=0;entryX=0.37;entryY=0.982;entryDx=0;entryDy=0;entryPerimeter=0;exitX=0.604;exitY=0.015;exitDx=0;exitDy=0;exitPerimeter=0;" parent="ps8bgpGyB-CreJivMz2w-64" source="ps8bgpGyB-CreJivMz2w-55" target="ps8bgpGyB-CreJivMz2w-54" edge="1">
          <mxGeometry width="50" height="50" relative="1" as="geometry">
            <mxPoint x="28.620000000000005" y="170" as="sourcePoint" />
            <mxPoint x="76.62" y="78" as="targetPoint" />
          </mxGeometry>
        </mxCell>
        <mxCell id="ps8bgpGyB-CreJivMz2w-58" value="" style="endArrow=none;html=1;rounded=0;exitX=0.469;exitY=0.002;exitDx=0;exitDy=0;entryX=0.525;entryY=0.995;entryDx=0;entryDy=0;entryPerimeter=0;exitPerimeter=0;" parent="ps8bgpGyB-CreJivMz2w-64" source="ps8bgpGyB-CreJivMz2w-56" target="ps8bgpGyB-CreJivMz2w-54" edge="1">
          <mxGeometry width="50" height="50" relative="1" as="geometry">
            <mxPoint x="148.61999999999998" y="169" as="sourcePoint" />
            <mxPoint x="98.62" y="80" as="targetPoint" />
          </mxGeometry>
        </mxCell>
        <mxCell id="ps8bgpGyB-CreJivMz2w-59" value="" style="endArrow=classic;startArrow=classic;html=1;rounded=0;exitX=1;exitY=0.5;exitDx=0;exitDy=0;" parent="ps8bgpGyB-CreJivMz2w-64" edge="1">
          <mxGeometry width="50" height="50" relative="1" as="geometry">
            <mxPoint x="80.00000000000091" y="209.83000000000004" as="sourcePoint" />
            <mxPoint x="116.21000000000001" y="210" as="targetPoint" />
          </mxGeometry>
        </mxCell>
        <mxCell id="ps8bgpGyB-CreJivMz2w-60" value="9，12" style="ellipse;whiteSpace=wrap;html=1;aspect=fixed;fillColor=#66FF66;" parent="ps8bgpGyB-CreJivMz2w-64" vertex="1">
          <mxGeometry x="236.21" y="170" width="80" height="80" as="geometry" />
        </mxCell>
        <mxCell id="ps8bgpGyB-CreJivMz2w-62" value="" style="endArrow=none;html=1;rounded=0;entryX=0.646;entryY=0.978;entryDx=0;entryDy=0;entryPerimeter=0;exitX=0.378;exitY=0.016;exitDx=0;exitDy=0;exitPerimeter=0;" parent="ps8bgpGyB-CreJivMz2w-64" source="ps8bgpGyB-CreJivMz2w-60" target="ps8bgpGyB-CreJivMz2w-54" edge="1">
          <mxGeometry width="50" height="50" relative="1" as="geometry">
            <mxPoint x="266.21000000000004" y="170" as="sourcePoint" />
            <mxPoint x="169.91" y="60" as="targetPoint" />
          </mxGeometry>
        </mxCell>
        <mxCell id="ps8bgpGyB-CreJivMz2w-63" value="" style="endArrow=classic;startArrow=classic;html=1;rounded=0;exitX=1;exitY=0.5;exitDx=0;exitDy=0;entryX=0;entryY=0.5;entryDx=0;entryDy=0;" parent="ps8bgpGyB-CreJivMz2w-64" target="ps8bgpGyB-CreJivMz2w-60" edge="1">
          <mxGeometry width="50" height="50" relative="1" as="geometry">
            <mxPoint x="196.21" y="209.83000000000004" as="sourcePoint" />
            <mxPoint x="232.41999999999913" y="210" as="targetPoint" />
          </mxGeometry>
        </mxCell>
        <mxCell id="ps8bgpGyB-CreJivMz2w-76" value="&lt;b&gt;插入4&lt;/b&gt;" style="text;strokeColor=none;align=center;fillColor=none;html=1;verticalAlign=middle;whiteSpace=wrap;rounded=0;" parent="1" vertex="1">
          <mxGeometry x="730" y="1050" width="40" height="20" as="geometry" />
        </mxCell>
        <mxCell id="ps8bgpGyB-CreJivMz2w-87" value="&lt;b&gt;插入2 → 分裂叶子节点&lt;/b&gt;" style="text;strokeColor=none;align=center;fillColor=none;html=1;verticalAlign=middle;whiteSpace=wrap;rounded=0;" parent="1" vertex="1">
          <mxGeometry x="284" y="1450" width="130" height="30" as="geometry" />
        </mxCell>
        <mxCell id="ps8bgpGyB-CreJivMz2w-103" value="&lt;b&gt;内部节点分裂 → 树增高&lt;/b&gt;" style="text;strokeColor=none;align=center;fillColor=none;html=1;verticalAlign=middle;whiteSpace=wrap;rounded=0;" parent="1" vertex="1">
          <mxGeometry x="840" y="1450" width="130" height="20" as="geometry" />
        </mxCell>
        <mxCell id="ps8bgpGyB-CreJivMz2w-134" value="&lt;b&gt;插入10&lt;/b&gt;" style="text;strokeColor=none;align=center;fillColor=none;html=1;verticalAlign=middle;whiteSpace=wrap;rounded=0;" parent="1" vertex="1">
          <mxGeometry x="410" y="2010" width="40" height="20" as="geometry" />
        </mxCell>
        <mxCell id="XF5M5yh0gR44CFZkDUlB-1" value="" style="group" vertex="1" connectable="0" parent="1">
          <mxGeometry x="130" y="320" width="240" height="250" as="geometry" />
        </mxCell>
        <mxCell id="XF5M5yh0gR44CFZkDUlB-2" value="7" style="ellipse;whiteSpace=wrap;html=1;aspect=fixed;fillColor=#CCFFCC;" vertex="1" parent="XF5M5yh0gR44CFZkDUlB-1">
          <mxGeometry x="80" width="80" height="80" as="geometry" />
        </mxCell>
        <mxCell id="XF5M5yh0gR44CFZkDUlB-3" value="1，5" style="ellipse;whiteSpace=wrap;html=1;aspect=fixed;fillColor=#66FF66;" vertex="1" parent="XF5M5yh0gR44CFZkDUlB-1">
          <mxGeometry y="170" width="80" height="80" as="geometry" />
        </mxCell>
        <mxCell id="XF5M5yh0gR44CFZkDUlB-4" value="7，8" style="ellipse;whiteSpace=wrap;html=1;aspect=fixed;fillColor=#66FF66;" vertex="1" parent="XF5M5yh0gR44CFZkDUlB-1">
          <mxGeometry x="160" y="170" width="80" height="80" as="geometry" />
        </mxCell>
        <mxCell id="XF5M5yh0gR44CFZkDUlB-5" value="" style="endArrow=none;html=1;rounded=0;entryX=0.37;entryY=0.982;entryDx=0;entryDy=0;entryPerimeter=0;exitX=0.604;exitY=0.015;exitDx=0;exitDy=0;exitPerimeter=0;" edge="1" parent="XF5M5yh0gR44CFZkDUlB-1" source="XF5M5yh0gR44CFZkDUlB-3" target="XF5M5yh0gR44CFZkDUlB-2">
          <mxGeometry width="50" height="50" relative="1" as="geometry">
            <mxPoint x="70" y="170" as="sourcePoint" />
            <mxPoint x="118" y="78" as="targetPoint" />
          </mxGeometry>
        </mxCell>
        <mxCell id="XF5M5yh0gR44CFZkDUlB-6" value="" style="endArrow=none;html=1;rounded=0;exitX=0.47;exitY=-0.003;exitDx=0;exitDy=0;entryX=0.619;entryY=0.98;entryDx=0;entryDy=0;entryPerimeter=0;exitPerimeter=0;" edge="1" parent="XF5M5yh0gR44CFZkDUlB-1" source="XF5M5yh0gR44CFZkDUlB-4" target="XF5M5yh0gR44CFZkDUlB-2">
          <mxGeometry width="50" height="50" relative="1" as="geometry">
            <mxPoint x="190" y="169" as="sourcePoint" />
            <mxPoint x="140" y="80" as="targetPoint" />
          </mxGeometry>
        </mxCell>
        <mxCell id="XF5M5yh0gR44CFZkDUlB-7" value="" style="endArrow=classic;startArrow=classic;html=1;rounded=0;exitX=1;exitY=0.5;exitDx=0;exitDy=0;entryX=0;entryY=0.5;entryDx=0;entryDy=0;" edge="1" parent="XF5M5yh0gR44CFZkDUlB-1" source="XF5M5yh0gR44CFZkDUlB-3" target="XF5M5yh0gR44CFZkDUlB-4">
          <mxGeometry width="50" height="50" relative="1" as="geometry">
            <mxPoint x="100" y="210" as="sourcePoint" />
            <mxPoint x="150" y="210" as="targetPoint" />
          </mxGeometry>
        </mxCell>
        <mxCell id="XF5M5yh0gR44CFZkDUlB-8" value="&lt;b&gt;插入7→ 分裂叶子节点&lt;/b&gt;" style="text;strokeColor=none;align=center;fillColor=none;html=1;verticalAlign=middle;whiteSpace=wrap;rounded=0;" vertex="1" parent="1">
          <mxGeometry x="183.70999999999998" y="290" width="132.59" height="20" as="geometry" />
        </mxCell>
        <mxCell id="XF5M5yh0gR44CFZkDUlB-9" value="" style="group" vertex="1" connectable="0" parent="1">
          <mxGeometry x="460.0000000000001" y="320" width="240" height="250" as="geometry" />
        </mxCell>
        <mxCell id="XF5M5yh0gR44CFZkDUlB-10" value="7" style="ellipse;whiteSpace=wrap;html=1;aspect=fixed;fillColor=#CCFFCC;" vertex="1" parent="XF5M5yh0gR44CFZkDUlB-9">
          <mxGeometry x="80" width="80" height="80" as="geometry" />
        </mxCell>
        <mxCell id="XF5M5yh0gR44CFZkDUlB-11" value="1，3，5" style="ellipse;whiteSpace=wrap;html=1;aspect=fixed;fillColor=#66FF66;" vertex="1" parent="XF5M5yh0gR44CFZkDUlB-9">
          <mxGeometry y="170" width="80" height="80" as="geometry" />
        </mxCell>
        <mxCell id="XF5M5yh0gR44CFZkDUlB-12" value="7，8" style="ellipse;whiteSpace=wrap;html=1;aspect=fixed;fillColor=#66FF66;" vertex="1" parent="XF5M5yh0gR44CFZkDUlB-9">
          <mxGeometry x="160" y="170" width="80" height="80" as="geometry" />
        </mxCell>
        <mxCell id="XF5M5yh0gR44CFZkDUlB-13" value="" style="endArrow=none;html=1;rounded=0;entryX=0.37;entryY=0.982;entryDx=0;entryDy=0;entryPerimeter=0;exitX=0.604;exitY=0.015;exitDx=0;exitDy=0;exitPerimeter=0;" edge="1" parent="XF5M5yh0gR44CFZkDUlB-9" source="XF5M5yh0gR44CFZkDUlB-11" target="XF5M5yh0gR44CFZkDUlB-10">
          <mxGeometry width="50" height="50" relative="1" as="geometry">
            <mxPoint x="70" y="170" as="sourcePoint" />
            <mxPoint x="118" y="78" as="targetPoint" />
          </mxGeometry>
        </mxCell>
        <mxCell id="XF5M5yh0gR44CFZkDUlB-14" value="" style="endArrow=none;html=1;rounded=0;exitX=0.47;exitY=-0.003;exitDx=0;exitDy=0;entryX=0.619;entryY=0.98;entryDx=0;entryDy=0;entryPerimeter=0;exitPerimeter=0;" edge="1" parent="XF5M5yh0gR44CFZkDUlB-9" source="XF5M5yh0gR44CFZkDUlB-12" target="XF5M5yh0gR44CFZkDUlB-10">
          <mxGeometry width="50" height="50" relative="1" as="geometry">
            <mxPoint x="190" y="169" as="sourcePoint" />
            <mxPoint x="140" y="80" as="targetPoint" />
          </mxGeometry>
        </mxCell>
        <mxCell id="XF5M5yh0gR44CFZkDUlB-15" value="" style="endArrow=classic;startArrow=classic;html=1;rounded=0;exitX=1;exitY=0.5;exitDx=0;exitDy=0;entryX=0;entryY=0.5;entryDx=0;entryDy=0;" edge="1" parent="XF5M5yh0gR44CFZkDUlB-9" source="XF5M5yh0gR44CFZkDUlB-11" target="XF5M5yh0gR44CFZkDUlB-12">
          <mxGeometry width="50" height="50" relative="1" as="geometry">
            <mxPoint x="100" y="210" as="sourcePoint" />
            <mxPoint x="150" y="210" as="targetPoint" />
          </mxGeometry>
        </mxCell>
        <mxCell id="XF5M5yh0gR44CFZkDUlB-16" value="" style="group" vertex="1" connectable="0" parent="1">
          <mxGeometry x="120" y="700" width="240" height="250" as="geometry" />
        </mxCell>
        <mxCell id="XF5M5yh0gR44CFZkDUlB-17" value="7" style="ellipse;whiteSpace=wrap;html=1;aspect=fixed;fillColor=#CCFFCC;" vertex="1" parent="XF5M5yh0gR44CFZkDUlB-16">
          <mxGeometry x="80" width="80" height="80" as="geometry" />
        </mxCell>
        <mxCell id="XF5M5yh0gR44CFZkDUlB-18" value="1，3，5" style="ellipse;whiteSpace=wrap;html=1;aspect=fixed;fillColor=#66FF66;" vertex="1" parent="XF5M5yh0gR44CFZkDUlB-16">
          <mxGeometry y="170" width="80" height="80" as="geometry" />
        </mxCell>
        <mxCell id="XF5M5yh0gR44CFZkDUlB-19" value="7，8，12" style="ellipse;whiteSpace=wrap;html=1;aspect=fixed;fillColor=#66FF66;" vertex="1" parent="XF5M5yh0gR44CFZkDUlB-16">
          <mxGeometry x="160" y="170" width="80" height="80" as="geometry" />
        </mxCell>
        <mxCell id="XF5M5yh0gR44CFZkDUlB-20" value="" style="endArrow=none;html=1;rounded=0;entryX=0.37;entryY=0.982;entryDx=0;entryDy=0;entryPerimeter=0;exitX=0.604;exitY=0.015;exitDx=0;exitDy=0;exitPerimeter=0;" edge="1" parent="XF5M5yh0gR44CFZkDUlB-16" source="XF5M5yh0gR44CFZkDUlB-18" target="XF5M5yh0gR44CFZkDUlB-17">
          <mxGeometry width="50" height="50" relative="1" as="geometry">
            <mxPoint x="70" y="170" as="sourcePoint" />
            <mxPoint x="118" y="78" as="targetPoint" />
          </mxGeometry>
        </mxCell>
        <mxCell id="XF5M5yh0gR44CFZkDUlB-21" value="" style="endArrow=none;html=1;rounded=0;exitX=0.47;exitY=-0.003;exitDx=0;exitDy=0;entryX=0.619;entryY=0.98;entryDx=0;entryDy=0;entryPerimeter=0;exitPerimeter=0;" edge="1" parent="XF5M5yh0gR44CFZkDUlB-16" source="XF5M5yh0gR44CFZkDUlB-19" target="XF5M5yh0gR44CFZkDUlB-17">
          <mxGeometry width="50" height="50" relative="1" as="geometry">
            <mxPoint x="190" y="169" as="sourcePoint" />
            <mxPoint x="140" y="80" as="targetPoint" />
          </mxGeometry>
        </mxCell>
        <mxCell id="XF5M5yh0gR44CFZkDUlB-22" value="" style="endArrow=classic;startArrow=classic;html=1;rounded=0;exitX=1;exitY=0.5;exitDx=0;exitDy=0;entryX=0;entryY=0.5;entryDx=0;entryDy=0;" edge="1" parent="XF5M5yh0gR44CFZkDUlB-16" source="XF5M5yh0gR44CFZkDUlB-18" target="XF5M5yh0gR44CFZkDUlB-19">
          <mxGeometry width="50" height="50" relative="1" as="geometry">
            <mxPoint x="100" y="210" as="sourcePoint" />
            <mxPoint x="150" y="210" as="targetPoint" />
          </mxGeometry>
        </mxCell>
        <mxCell id="XF5M5yh0gR44CFZkDUlB-23" value="&lt;b&gt;插入6 → 分裂叶子节点&lt;/b&gt;" style="text;strokeColor=none;align=center;fillColor=none;html=1;verticalAlign=middle;whiteSpace=wrap;rounded=0;" vertex="1" parent="1">
          <mxGeometry x="196.2" y="1050" width="127.59" height="20" as="geometry" />
        </mxCell>
        <mxCell id="XF5M5yh0gR44CFZkDUlB-24" value="" style="group" vertex="1" connectable="0" parent="1">
          <mxGeometry x="50" y="1080" width="440" height="280" as="geometry" />
        </mxCell>
        <mxCell id="XF5M5yh0gR44CFZkDUlB-25" value="5，7，9" style="ellipse;whiteSpace=wrap;html=1;aspect=fixed;fillColor=#CCFFCC;" vertex="1" parent="XF5M5yh0gR44CFZkDUlB-24">
          <mxGeometry x="174.39999999999998" width="80" height="80" as="geometry" />
        </mxCell>
        <mxCell id="XF5M5yh0gR44CFZkDUlB-26" value="1，3" style="ellipse;whiteSpace=wrap;html=1;aspect=fixed;fillColor=#66FF66;" vertex="1" parent="XF5M5yh0gR44CFZkDUlB-24">
          <mxGeometry y="200" width="80" height="80" as="geometry" />
        </mxCell>
        <mxCell id="XF5M5yh0gR44CFZkDUlB-27" value="5，6" style="ellipse;whiteSpace=wrap;html=1;aspect=fixed;fillColor=#66FF66;" vertex="1" parent="XF5M5yh0gR44CFZkDUlB-24">
          <mxGeometry x="116.21000000000004" y="200" width="80" height="80" as="geometry" />
        </mxCell>
        <mxCell id="XF5M5yh0gR44CFZkDUlB-28" value="" style="endArrow=none;html=1;rounded=0;entryX=0.275;entryY=0.948;entryDx=0;entryDy=0;entryPerimeter=0;exitX=0.604;exitY=0.015;exitDx=0;exitDy=0;exitPerimeter=0;" edge="1" parent="XF5M5yh0gR44CFZkDUlB-24" source="XF5M5yh0gR44CFZkDUlB-26" target="XF5M5yh0gR44CFZkDUlB-25">
          <mxGeometry width="50" height="50" relative="1" as="geometry">
            <mxPoint x="28.620000000000005" y="200" as="sourcePoint" />
            <mxPoint x="76.62" y="108" as="targetPoint" />
          </mxGeometry>
        </mxCell>
        <mxCell id="XF5M5yh0gR44CFZkDUlB-29" value="" style="endArrow=none;html=1;rounded=0;exitX=0.469;exitY=0.002;exitDx=0;exitDy=0;exitPerimeter=0;entryX=0.42;entryY=0.99;entryDx=0;entryDy=0;entryPerimeter=0;" edge="1" parent="XF5M5yh0gR44CFZkDUlB-24" source="XF5M5yh0gR44CFZkDUlB-27" target="XF5M5yh0gR44CFZkDUlB-25">
          <mxGeometry width="50" height="50" relative="1" as="geometry">
            <mxPoint x="148.62" y="199" as="sourcePoint" />
            <mxPoint x="208" y="109" as="targetPoint" />
          </mxGeometry>
        </mxCell>
        <mxCell id="XF5M5yh0gR44CFZkDUlB-30" value="" style="endArrow=classic;startArrow=classic;html=1;rounded=0;exitX=1;exitY=0.5;exitDx=0;exitDy=0;" edge="1" parent="XF5M5yh0gR44CFZkDUlB-24">
          <mxGeometry width="50" height="50" relative="1" as="geometry">
            <mxPoint x="80.00000000000091" y="239.82999999999993" as="sourcePoint" />
            <mxPoint x="116.21000000000004" y="240" as="targetPoint" />
          </mxGeometry>
        </mxCell>
        <mxCell id="XF5M5yh0gR44CFZkDUlB-31" value="7，8" style="ellipse;whiteSpace=wrap;html=1;aspect=fixed;fillColor=#66FF66;" vertex="1" parent="XF5M5yh0gR44CFZkDUlB-24">
          <mxGeometry x="236.21000000000004" y="200" width="80" height="80" as="geometry" />
        </mxCell>
        <mxCell id="XF5M5yh0gR44CFZkDUlB-32" value="" style="endArrow=none;html=1;rounded=0;entryX=0.571;entryY=0.997;entryDx=0;entryDy=0;entryPerimeter=0;exitX=0.378;exitY=0.016;exitDx=0;exitDy=0;exitPerimeter=0;" edge="1" parent="XF5M5yh0gR44CFZkDUlB-24" source="XF5M5yh0gR44CFZkDUlB-31" target="XF5M5yh0gR44CFZkDUlB-25">
          <mxGeometry width="50" height="50" relative="1" as="geometry">
            <mxPoint x="266.21000000000004" y="200" as="sourcePoint" />
            <mxPoint x="169.90999999999997" y="90" as="targetPoint" />
          </mxGeometry>
        </mxCell>
        <mxCell id="XF5M5yh0gR44CFZkDUlB-33" value="" style="endArrow=classic;startArrow=classic;html=1;rounded=0;exitX=1;exitY=0.5;exitDx=0;exitDy=0;entryX=0;entryY=0.5;entryDx=0;entryDy=0;" edge="1" parent="XF5M5yh0gR44CFZkDUlB-24" target="XF5M5yh0gR44CFZkDUlB-31">
          <mxGeometry width="50" height="50" relative="1" as="geometry">
            <mxPoint x="196.21000000000004" y="239.82999999999993" as="sourcePoint" />
            <mxPoint x="232.41999999999916" y="240" as="targetPoint" />
          </mxGeometry>
        </mxCell>
        <mxCell id="XF5M5yh0gR44CFZkDUlB-34" value="9，12" style="ellipse;whiteSpace=wrap;html=1;aspect=fixed;fillColor=#66FF66;" vertex="1" parent="XF5M5yh0gR44CFZkDUlB-24">
          <mxGeometry x="360" y="200" width="80" height="80" as="geometry" />
        </mxCell>
        <mxCell id="XF5M5yh0gR44CFZkDUlB-35" value="" style="endArrow=classic;startArrow=classic;html=1;rounded=0;exitX=1;exitY=0.5;exitDx=0;exitDy=0;entryX=0;entryY=0.5;entryDx=0;entryDy=0;" edge="1" parent="XF5M5yh0gR44CFZkDUlB-24" target="XF5M5yh0gR44CFZkDUlB-34">
          <mxGeometry width="50" height="50" relative="1" as="geometry">
            <mxPoint x="316.21000000000004" y="239.82999999999993" as="sourcePoint" />
            <mxPoint x="356" y="240" as="targetPoint" />
          </mxGeometry>
        </mxCell>
        <mxCell id="XF5M5yh0gR44CFZkDUlB-36" value="" style="endArrow=none;html=1;rounded=0;entryX=0.695;entryY=0.964;entryDx=0;entryDy=0;entryPerimeter=0;exitX=0.394;exitY=0.011;exitDx=0;exitDy=0;exitPerimeter=0;" edge="1" parent="XF5M5yh0gR44CFZkDUlB-24" source="XF5M5yh0gR44CFZkDUlB-34" target="XF5M5yh0gR44CFZkDUlB-25">
          <mxGeometry width="50" height="50" relative="1" as="geometry">
            <mxPoint x="340.21000000000004" y="200" as="sourcePoint" />
            <mxPoint x="236.21000000000004" y="107" as="targetPoint" />
          </mxGeometry>
        </mxCell>
        <mxCell id="XF5M5yh0gR44CFZkDUlB-37" value="" style="group" vertex="1" connectable="0" parent="1">
          <mxGeometry x="530" y="1080" width="440" height="280" as="geometry" />
        </mxCell>
        <mxCell id="XF5M5yh0gR44CFZkDUlB-38" value="5，7，9" style="ellipse;whiteSpace=wrap;html=1;aspect=fixed;fillColor=#CCFFCC;" vertex="1" parent="XF5M5yh0gR44CFZkDUlB-37">
          <mxGeometry x="174.39999999999998" width="80" height="80" as="geometry" />
        </mxCell>
        <mxCell id="XF5M5yh0gR44CFZkDUlB-39" value="1，3，4" style="ellipse;whiteSpace=wrap;html=1;aspect=fixed;fillColor=#66FF66;" vertex="1" parent="XF5M5yh0gR44CFZkDUlB-37">
          <mxGeometry y="200" width="80" height="80" as="geometry" />
        </mxCell>
        <mxCell id="XF5M5yh0gR44CFZkDUlB-40" value="5，6" style="ellipse;whiteSpace=wrap;html=1;aspect=fixed;fillColor=#66FF66;" vertex="1" parent="XF5M5yh0gR44CFZkDUlB-37">
          <mxGeometry x="116.21000000000004" y="200" width="80" height="80" as="geometry" />
        </mxCell>
        <mxCell id="XF5M5yh0gR44CFZkDUlB-41" value="" style="endArrow=none;html=1;rounded=0;entryX=0.275;entryY=0.948;entryDx=0;entryDy=0;entryPerimeter=0;exitX=0.604;exitY=0.015;exitDx=0;exitDy=0;exitPerimeter=0;" edge="1" parent="XF5M5yh0gR44CFZkDUlB-37" source="XF5M5yh0gR44CFZkDUlB-39" target="XF5M5yh0gR44CFZkDUlB-38">
          <mxGeometry width="50" height="50" relative="1" as="geometry">
            <mxPoint x="28.620000000000005" y="200" as="sourcePoint" />
            <mxPoint x="76.62" y="108" as="targetPoint" />
          </mxGeometry>
        </mxCell>
        <mxCell id="XF5M5yh0gR44CFZkDUlB-42" value="" style="endArrow=none;html=1;rounded=0;exitX=0.469;exitY=0.002;exitDx=0;exitDy=0;exitPerimeter=0;entryX=0.42;entryY=0.99;entryDx=0;entryDy=0;entryPerimeter=0;" edge="1" parent="XF5M5yh0gR44CFZkDUlB-37" source="XF5M5yh0gR44CFZkDUlB-40" target="XF5M5yh0gR44CFZkDUlB-38">
          <mxGeometry width="50" height="50" relative="1" as="geometry">
            <mxPoint x="148.62" y="199" as="sourcePoint" />
            <mxPoint x="208" y="109" as="targetPoint" />
          </mxGeometry>
        </mxCell>
        <mxCell id="XF5M5yh0gR44CFZkDUlB-43" value="" style="endArrow=classic;startArrow=classic;html=1;rounded=0;exitX=1;exitY=0.5;exitDx=0;exitDy=0;" edge="1" parent="XF5M5yh0gR44CFZkDUlB-37">
          <mxGeometry width="50" height="50" relative="1" as="geometry">
            <mxPoint x="80.00000000000091" y="239.82999999999993" as="sourcePoint" />
            <mxPoint x="116.21000000000004" y="240" as="targetPoint" />
          </mxGeometry>
        </mxCell>
        <mxCell id="XF5M5yh0gR44CFZkDUlB-44" value="7，8" style="ellipse;whiteSpace=wrap;html=1;aspect=fixed;fillColor=#66FF66;" vertex="1" parent="XF5M5yh0gR44CFZkDUlB-37">
          <mxGeometry x="236.21000000000004" y="200" width="80" height="80" as="geometry" />
        </mxCell>
        <mxCell id="XF5M5yh0gR44CFZkDUlB-45" value="" style="endArrow=none;html=1;rounded=0;entryX=0.571;entryY=0.997;entryDx=0;entryDy=0;entryPerimeter=0;exitX=0.378;exitY=0.016;exitDx=0;exitDy=0;exitPerimeter=0;" edge="1" parent="XF5M5yh0gR44CFZkDUlB-37" source="XF5M5yh0gR44CFZkDUlB-44" target="XF5M5yh0gR44CFZkDUlB-38">
          <mxGeometry width="50" height="50" relative="1" as="geometry">
            <mxPoint x="266.21000000000004" y="200" as="sourcePoint" />
            <mxPoint x="169.90999999999997" y="90" as="targetPoint" />
          </mxGeometry>
        </mxCell>
        <mxCell id="XF5M5yh0gR44CFZkDUlB-46" value="" style="endArrow=classic;startArrow=classic;html=1;rounded=0;exitX=1;exitY=0.5;exitDx=0;exitDy=0;entryX=0;entryY=0.5;entryDx=0;entryDy=0;" edge="1" parent="XF5M5yh0gR44CFZkDUlB-37" target="XF5M5yh0gR44CFZkDUlB-44">
          <mxGeometry width="50" height="50" relative="1" as="geometry">
            <mxPoint x="196.21000000000004" y="239.82999999999993" as="sourcePoint" />
            <mxPoint x="232.41999999999916" y="240" as="targetPoint" />
          </mxGeometry>
        </mxCell>
        <mxCell id="XF5M5yh0gR44CFZkDUlB-47" value="9，12" style="ellipse;whiteSpace=wrap;html=1;aspect=fixed;fillColor=#66FF66;" vertex="1" parent="XF5M5yh0gR44CFZkDUlB-37">
          <mxGeometry x="360" y="200" width="80" height="80" as="geometry" />
        </mxCell>
        <mxCell id="XF5M5yh0gR44CFZkDUlB-48" value="" style="endArrow=classic;startArrow=classic;html=1;rounded=0;exitX=1;exitY=0.5;exitDx=0;exitDy=0;entryX=0;entryY=0.5;entryDx=0;entryDy=0;" edge="1" parent="XF5M5yh0gR44CFZkDUlB-37" target="XF5M5yh0gR44CFZkDUlB-47">
          <mxGeometry width="50" height="50" relative="1" as="geometry">
            <mxPoint x="316.21000000000004" y="239.82999999999993" as="sourcePoint" />
            <mxPoint x="356" y="240" as="targetPoint" />
          </mxGeometry>
        </mxCell>
        <mxCell id="XF5M5yh0gR44CFZkDUlB-49" value="" style="endArrow=none;html=1;rounded=0;entryX=0.695;entryY=0.964;entryDx=0;entryDy=0;entryPerimeter=0;exitX=0.394;exitY=0.011;exitDx=0;exitDy=0;exitPerimeter=0;" edge="1" parent="XF5M5yh0gR44CFZkDUlB-37" source="XF5M5yh0gR44CFZkDUlB-47" target="XF5M5yh0gR44CFZkDUlB-38">
          <mxGeometry width="50" height="50" relative="1" as="geometry">
            <mxPoint x="340.21000000000004" y="200" as="sourcePoint" />
            <mxPoint x="236.21000000000004" y="107" as="targetPoint" />
          </mxGeometry>
        </mxCell>
        <mxCell id="XF5M5yh0gR44CFZkDUlB-71" value="" style="group" vertex="1" connectable="0" parent="1">
          <mxGeometry x="60" y="1530" width="563.79" height="290" as="geometry" />
        </mxCell>
        <mxCell id="XF5M5yh0gR44CFZkDUlB-51" value="3，5，7，9" style="ellipse;whiteSpace=wrap;html=1;aspect=fixed;fillColor=#CCFFCC;" vertex="1" parent="XF5M5yh0gR44CFZkDUlB-71">
          <mxGeometry x="244" width="80" height="80" as="geometry" />
        </mxCell>
        <mxCell id="XF5M5yh0gR44CFZkDUlB-52" value="1，2" style="ellipse;whiteSpace=wrap;html=1;aspect=fixed;fillColor=#66FF66;" vertex="1" parent="XF5M5yh0gR44CFZkDUlB-71">
          <mxGeometry y="210" width="80" height="80" as="geometry" />
        </mxCell>
        <mxCell id="XF5M5yh0gR44CFZkDUlB-53" value="3，4" style="ellipse;whiteSpace=wrap;html=1;aspect=fixed;fillColor=#66FF66;" vertex="1" parent="XF5M5yh0gR44CFZkDUlB-71">
          <mxGeometry x="125.00000000000006" y="210" width="80" height="80" as="geometry" />
        </mxCell>
        <mxCell id="XF5M5yh0gR44CFZkDUlB-54" value="" style="endArrow=none;html=1;rounded=0;entryX=0.275;entryY=0.948;entryDx=0;entryDy=0;entryPerimeter=0;exitX=0.604;exitY=0.015;exitDx=0;exitDy=0;exitPerimeter=0;" edge="1" parent="XF5M5yh0gR44CFZkDUlB-71" source="XF5M5yh0gR44CFZkDUlB-52" target="XF5M5yh0gR44CFZkDUlB-51">
          <mxGeometry width="50" height="50" relative="1" as="geometry">
            <mxPoint x="98.62" y="210" as="sourcePoint" />
            <mxPoint x="146.62" y="118" as="targetPoint" />
          </mxGeometry>
        </mxCell>
        <mxCell id="XF5M5yh0gR44CFZkDUlB-55" value="" style="endArrow=none;html=1;rounded=0;exitX=0.469;exitY=0.002;exitDx=0;exitDy=0;exitPerimeter=0;entryX=0.42;entryY=0.99;entryDx=0;entryDy=0;entryPerimeter=0;" edge="1" parent="XF5M5yh0gR44CFZkDUlB-71" source="XF5M5yh0gR44CFZkDUlB-53" target="XF5M5yh0gR44CFZkDUlB-51">
          <mxGeometry width="50" height="50" relative="1" as="geometry">
            <mxPoint x="218.62" y="209" as="sourcePoint" />
            <mxPoint x="278" y="119" as="targetPoint" />
          </mxGeometry>
        </mxCell>
        <mxCell id="XF5M5yh0gR44CFZkDUlB-57" value="7，8" style="ellipse;whiteSpace=wrap;html=1;aspect=fixed;fillColor=#66FF66;" vertex="1" parent="XF5M5yh0gR44CFZkDUlB-71">
          <mxGeometry x="364.00000000000006" y="210" width="80" height="80" as="geometry" />
        </mxCell>
        <mxCell id="XF5M5yh0gR44CFZkDUlB-58" value="" style="endArrow=none;html=1;rounded=0;entryX=0.571;entryY=0.997;entryDx=0;entryDy=0;entryPerimeter=0;exitX=0.378;exitY=0.016;exitDx=0;exitDy=0;exitPerimeter=0;" edge="1" parent="XF5M5yh0gR44CFZkDUlB-71" source="XF5M5yh0gR44CFZkDUlB-57" target="XF5M5yh0gR44CFZkDUlB-51">
          <mxGeometry width="50" height="50" relative="1" as="geometry">
            <mxPoint x="336.21000000000004" y="210" as="sourcePoint" />
            <mxPoint x="239.90999999999997" y="100" as="targetPoint" />
          </mxGeometry>
        </mxCell>
        <mxCell id="XF5M5yh0gR44CFZkDUlB-59" value="" style="endArrow=classic;startArrow=classic;html=1;rounded=0;exitX=1;exitY=0.5;exitDx=0;exitDy=0;entryX=0;entryY=0.5;entryDx=0;entryDy=0;" edge="1" parent="XF5M5yh0gR44CFZkDUlB-71">
          <mxGeometry width="50" height="50" relative="1" as="geometry">
            <mxPoint x="204.00000000000006" y="249.76999999999998" as="sourcePoint" />
            <mxPoint x="244.00000000000006" y="249.94000000000005" as="targetPoint" />
          </mxGeometry>
        </mxCell>
        <mxCell id="XF5M5yh0gR44CFZkDUlB-60" value="9，12" style="ellipse;whiteSpace=wrap;html=1;aspect=fixed;fillColor=#66FF66;" vertex="1" parent="XF5M5yh0gR44CFZkDUlB-71">
          <mxGeometry x="483.78999999999996" y="210" width="80" height="80" as="geometry" />
        </mxCell>
        <mxCell id="XF5M5yh0gR44CFZkDUlB-62" value="" style="endArrow=none;html=1;rounded=0;entryX=0.706;entryY=0.954;entryDx=0;entryDy=0;entryPerimeter=0;exitX=0.394;exitY=0.011;exitDx=0;exitDy=0;exitPerimeter=0;" edge="1" parent="XF5M5yh0gR44CFZkDUlB-71" source="XF5M5yh0gR44CFZkDUlB-60" target="XF5M5yh0gR44CFZkDUlB-51">
          <mxGeometry width="50" height="50" relative="1" as="geometry">
            <mxPoint x="410.21000000000004" y="210" as="sourcePoint" />
            <mxPoint x="306.21000000000004" y="117" as="targetPoint" />
          </mxGeometry>
        </mxCell>
        <mxCell id="XF5M5yh0gR44CFZkDUlB-63" value="5，6" style="ellipse;whiteSpace=wrap;html=1;aspect=fixed;fillColor=#66FF66;" vertex="1" parent="XF5M5yh0gR44CFZkDUlB-71">
          <mxGeometry x="244" y="210" width="80" height="80" as="geometry" />
        </mxCell>
        <mxCell id="XF5M5yh0gR44CFZkDUlB-65" value="" style="endArrow=none;html=1;rounded=0;exitX=0.5;exitY=0;exitDx=0;exitDy=0;entryX=0.485;entryY=0.995;entryDx=0;entryDy=0;entryPerimeter=0;" edge="1" parent="XF5M5yh0gR44CFZkDUlB-71" source="XF5M5yh0gR44CFZkDUlB-63" target="XF5M5yh0gR44CFZkDUlB-51">
          <mxGeometry width="50" height="50" relative="1" as="geometry">
            <mxPoint x="283.23" y="180" as="sourcePoint" />
            <mxPoint x="283.23" y="90" as="targetPoint" />
          </mxGeometry>
        </mxCell>
        <mxCell id="XF5M5yh0gR44CFZkDUlB-66" value="" style="endArrow=classic;startArrow=classic;html=1;rounded=0;exitX=1;exitY=0.5;exitDx=0;exitDy=0;entryX=0;entryY=0.5;entryDx=0;entryDy=0;" edge="1" parent="XF5M5yh0gR44CFZkDUlB-71">
          <mxGeometry width="50" height="50" relative="1" as="geometry">
            <mxPoint x="324" y="249.76999999999998" as="sourcePoint" />
            <mxPoint x="364" y="249.94000000000005" as="targetPoint" />
          </mxGeometry>
        </mxCell>
        <mxCell id="XF5M5yh0gR44CFZkDUlB-67" value="" style="endArrow=classic;startArrow=classic;html=1;rounded=0;exitX=1;exitY=0.5;exitDx=0;exitDy=0;entryX=0;entryY=0.5;entryDx=0;entryDy=0;" edge="1" parent="XF5M5yh0gR44CFZkDUlB-71">
          <mxGeometry width="50" height="50" relative="1" as="geometry">
            <mxPoint x="443.79" y="249.76999999999998" as="sourcePoint" />
            <mxPoint x="483.78999999999996" y="249.94000000000005" as="targetPoint" />
          </mxGeometry>
        </mxCell>
        <mxCell id="XF5M5yh0gR44CFZkDUlB-69" value="" style="endArrow=classic;startArrow=classic;html=1;rounded=0;exitX=1;exitY=0.5;exitDx=0;exitDy=0;entryX=0;entryY=0.5;entryDx=0;entryDy=0;" edge="1" parent="XF5M5yh0gR44CFZkDUlB-71" source="XF5M5yh0gR44CFZkDUlB-52">
          <mxGeometry width="50" height="50" relative="1" as="geometry">
            <mxPoint x="85" y="249.76999999999998" as="sourcePoint" />
            <mxPoint x="125" y="249.94000000000005" as="targetPoint" />
          </mxGeometry>
        </mxCell>
        <mxCell id="XF5M5yh0gR44CFZkDUlB-101" value="" style="group" vertex="1" connectable="0" parent="1">
          <mxGeometry x="650" y="1490" width="560" height="410" as="geometry" />
        </mxCell>
        <mxCell id="XF5M5yh0gR44CFZkDUlB-73" value="9" style="ellipse;whiteSpace=wrap;html=1;aspect=fixed;fillColor=#CCFFCC;" vertex="1" parent="XF5M5yh0gR44CFZkDUlB-101">
          <mxGeometry x="420" y="160" width="80" height="80" as="geometry" />
        </mxCell>
        <mxCell id="XF5M5yh0gR44CFZkDUlB-74" value="7，8" style="ellipse;whiteSpace=wrap;html=1;aspect=fixed;fillColor=#66FF66;" vertex="1" parent="XF5M5yh0gR44CFZkDUlB-101">
          <mxGeometry x="360" y="330" width="80" height="80" as="geometry" />
        </mxCell>
        <mxCell id="XF5M5yh0gR44CFZkDUlB-75" value="9，12" style="ellipse;whiteSpace=wrap;html=1;aspect=fixed;fillColor=#66FF66;" vertex="1" parent="XF5M5yh0gR44CFZkDUlB-101">
          <mxGeometry x="480" y="330" width="80" height="80" as="geometry" />
        </mxCell>
        <mxCell id="XF5M5yh0gR44CFZkDUlB-76" value="" style="endArrow=none;html=1;rounded=0;entryX=0.408;entryY=0.99;entryDx=0;entryDy=0;entryPerimeter=0;exitX=0.604;exitY=0.015;exitDx=0;exitDy=0;exitPerimeter=0;" edge="1" parent="XF5M5yh0gR44CFZkDUlB-101" source="XF5M5yh0gR44CFZkDUlB-74" target="XF5M5yh0gR44CFZkDUlB-73">
          <mxGeometry width="50" height="50" relative="1" as="geometry">
            <mxPoint x="-211.38" y="330" as="sourcePoint" />
            <mxPoint x="-163.38" y="238" as="targetPoint" />
          </mxGeometry>
        </mxCell>
        <mxCell id="XF5M5yh0gR44CFZkDUlB-77" value="" style="endArrow=none;html=1;rounded=0;exitX=0.469;exitY=0.002;exitDx=0;exitDy=0;exitPerimeter=0;entryX=0.59;entryY=0.993;entryDx=0;entryDy=0;entryPerimeter=0;" edge="1" parent="XF5M5yh0gR44CFZkDUlB-101" source="XF5M5yh0gR44CFZkDUlB-75" target="XF5M5yh0gR44CFZkDUlB-73">
          <mxGeometry width="50" height="50" relative="1" as="geometry">
            <mxPoint x="-91.38" y="329" as="sourcePoint" />
            <mxPoint x="-32" y="239" as="targetPoint" />
          </mxGeometry>
        </mxCell>
        <mxCell id="XF5M5yh0gR44CFZkDUlB-79" value="1，2" style="ellipse;whiteSpace=wrap;html=1;aspect=fixed;fillColor=#66FF66;" vertex="1" parent="XF5M5yh0gR44CFZkDUlB-101">
          <mxGeometry y="330" width="80" height="80" as="geometry" />
        </mxCell>
        <mxCell id="XF5M5yh0gR44CFZkDUlB-81" value="3，4" style="ellipse;whiteSpace=wrap;html=1;aspect=fixed;fillColor=#66FF66;" vertex="1" parent="XF5M5yh0gR44CFZkDUlB-101">
          <mxGeometry x="120" y="330" width="80" height="80" as="geometry" />
        </mxCell>
        <mxCell id="XF5M5yh0gR44CFZkDUlB-83" value="3，5" style="ellipse;whiteSpace=wrap;html=1;aspect=fixed;fillColor=#CCFFCC;" vertex="1" parent="XF5M5yh0gR44CFZkDUlB-101">
          <mxGeometry x="120" y="160" width="80" height="80" as="geometry" />
        </mxCell>
        <mxCell id="XF5M5yh0gR44CFZkDUlB-85" value="" style="endArrow=none;html=1;rounded=0;entryX=0.282;entryY=0.947;entryDx=0;entryDy=0;entryPerimeter=0;exitX=0.596;exitY=0.007;exitDx=0;exitDy=0;exitPerimeter=0;" edge="1" parent="XF5M5yh0gR44CFZkDUlB-101" source="XF5M5yh0gR44CFZkDUlB-79" target="XF5M5yh0gR44CFZkDUlB-83">
          <mxGeometry width="50" height="50" relative="1" as="geometry">
            <mxPoint x="40" y="320" as="sourcePoint" />
            <mxPoint x="85" y="238" as="targetPoint" />
          </mxGeometry>
        </mxCell>
        <mxCell id="XF5M5yh0gR44CFZkDUlB-86" value="" style="endArrow=none;html=1;rounded=0;exitX=0.5;exitY=0;exitDx=0;exitDy=0;entryX=0.5;entryY=1;entryDx=0;entryDy=0;" edge="1" parent="XF5M5yh0gR44CFZkDUlB-101" source="XF5M5yh0gR44CFZkDUlB-81" target="XF5M5yh0gR44CFZkDUlB-83">
          <mxGeometry width="50" height="50" relative="1" as="geometry">
            <mxPoint x="147" y="330" as="sourcePoint" />
            <mxPoint x="100" y="239" as="targetPoint" />
          </mxGeometry>
        </mxCell>
        <mxCell id="XF5M5yh0gR44CFZkDUlB-89" value="5，6" style="ellipse;whiteSpace=wrap;html=1;aspect=fixed;fillColor=#66FF66;" vertex="1" parent="XF5M5yh0gR44CFZkDUlB-101">
          <mxGeometry x="240" y="330" width="80" height="80" as="geometry" />
        </mxCell>
        <mxCell id="XF5M5yh0gR44CFZkDUlB-91" value="" style="endArrow=none;html=1;rounded=0;exitX=0.395;exitY=0.014;exitDx=0;exitDy=0;exitPerimeter=0;entryX=0.711;entryY=0.947;entryDx=0;entryDy=0;entryPerimeter=0;" edge="1" parent="XF5M5yh0gR44CFZkDUlB-101" source="XF5M5yh0gR44CFZkDUlB-89" target="XF5M5yh0gR44CFZkDUlB-83">
          <mxGeometry width="50" height="50" relative="1" as="geometry">
            <mxPoint x="270" y="330" as="sourcePoint" />
            <mxPoint x="225" y="260" as="targetPoint" />
          </mxGeometry>
        </mxCell>
        <mxCell id="XF5M5yh0gR44CFZkDUlB-92" value="7" style="ellipse;whiteSpace=wrap;html=1;aspect=fixed;fillColor=#CCFFCC;" vertex="1" parent="XF5M5yh0gR44CFZkDUlB-101">
          <mxGeometry x="270" width="80" height="80" as="geometry" />
        </mxCell>
        <mxCell id="XF5M5yh0gR44CFZkDUlB-93" value="" style="endArrow=classic;startArrow=classic;html=1;rounded=0;exitX=1;exitY=0.5;exitDx=0;exitDy=0;entryX=0;entryY=0.5;entryDx=0;entryDy=0;" edge="1" parent="XF5M5yh0gR44CFZkDUlB-101">
          <mxGeometry width="50" height="50" relative="1" as="geometry">
            <mxPoint x="80" y="369.8000000000002" as="sourcePoint" />
            <mxPoint x="120" y="369.97000000000025" as="targetPoint" />
          </mxGeometry>
        </mxCell>
        <mxCell id="XF5M5yh0gR44CFZkDUlB-94" value="" style="endArrow=classic;startArrow=classic;html=1;rounded=0;exitX=1;exitY=0.5;exitDx=0;exitDy=0;entryX=0;entryY=0.5;entryDx=0;entryDy=0;" edge="1" parent="XF5M5yh0gR44CFZkDUlB-101">
          <mxGeometry width="50" height="50" relative="1" as="geometry">
            <mxPoint x="200" y="369.8000000000002" as="sourcePoint" />
            <mxPoint x="240" y="369.97000000000025" as="targetPoint" />
          </mxGeometry>
        </mxCell>
        <mxCell id="XF5M5yh0gR44CFZkDUlB-95" value="" style="endArrow=classic;startArrow=classic;html=1;rounded=0;exitX=1;exitY=0.5;exitDx=0;exitDy=0;entryX=0;entryY=0.5;entryDx=0;entryDy=0;" edge="1" parent="XF5M5yh0gR44CFZkDUlB-101">
          <mxGeometry width="50" height="50" relative="1" as="geometry">
            <mxPoint x="320" y="369.8000000000002" as="sourcePoint" />
            <mxPoint x="360" y="369.97000000000025" as="targetPoint" />
          </mxGeometry>
        </mxCell>
        <mxCell id="XF5M5yh0gR44CFZkDUlB-96" value="" style="endArrow=classic;startArrow=classic;html=1;rounded=0;exitX=1;exitY=0.5;exitDx=0;exitDy=0;entryX=0;entryY=0.5;entryDx=0;entryDy=0;" edge="1" parent="XF5M5yh0gR44CFZkDUlB-101">
          <mxGeometry width="50" height="50" relative="1" as="geometry">
            <mxPoint x="440" y="369.8000000000002" as="sourcePoint" />
            <mxPoint x="480" y="369.97000000000025" as="targetPoint" />
          </mxGeometry>
        </mxCell>
        <mxCell id="XF5M5yh0gR44CFZkDUlB-97" value="" style="endArrow=none;html=1;rounded=0;entryX=0.259;entryY=0.94;entryDx=0;entryDy=0;entryPerimeter=0;exitX=0.702;exitY=0.046;exitDx=0;exitDy=0;exitPerimeter=0;" edge="1" parent="XF5M5yh0gR44CFZkDUlB-101" source="XF5M5yh0gR44CFZkDUlB-83" target="XF5M5yh0gR44CFZkDUlB-92">
          <mxGeometry width="50" height="50" relative="1" as="geometry">
            <mxPoint x="180" y="160" as="sourcePoint" />
            <mxPoint x="292" y="65" as="targetPoint" />
          </mxGeometry>
        </mxCell>
        <mxCell id="XF5M5yh0gR44CFZkDUlB-98" value="" style="endArrow=none;html=1;rounded=0;exitX=0.228;exitY=0.077;exitDx=0;exitDy=0;exitPerimeter=0;entryX=0.717;entryY=0.947;entryDx=0;entryDy=0;entryPerimeter=0;" edge="1" parent="XF5M5yh0gR44CFZkDUlB-101" source="XF5M5yh0gR44CFZkDUlB-73" target="XF5M5yh0gR44CFZkDUlB-92">
          <mxGeometry width="50" height="50" relative="1" as="geometry">
            <mxPoint x="460.5" y="170" as="sourcePoint" />
            <mxPoint x="330" y="77" as="targetPoint" />
          </mxGeometry>
        </mxCell>
        <mxCell id="XF5M5yh0gR44CFZkDUlB-102" value="" style="group" vertex="1" connectable="0" parent="1">
          <mxGeometry x="120" y="2050" width="560" height="410" as="geometry" />
        </mxCell>
        <mxCell id="XF5M5yh0gR44CFZkDUlB-103" value="9" style="ellipse;whiteSpace=wrap;html=1;aspect=fixed;fillColor=#CCFFCC;" vertex="1" parent="XF5M5yh0gR44CFZkDUlB-102">
          <mxGeometry x="420" y="160" width="80" height="80" as="geometry" />
        </mxCell>
        <mxCell id="XF5M5yh0gR44CFZkDUlB-104" value="7，8" style="ellipse;whiteSpace=wrap;html=1;aspect=fixed;fillColor=#66FF66;" vertex="1" parent="XF5M5yh0gR44CFZkDUlB-102">
          <mxGeometry x="360" y="330" width="80" height="80" as="geometry" />
        </mxCell>
        <mxCell id="XF5M5yh0gR44CFZkDUlB-105" value="9，10，12" style="ellipse;whiteSpace=wrap;html=1;aspect=fixed;fillColor=#66FF66;" vertex="1" parent="XF5M5yh0gR44CFZkDUlB-102">
          <mxGeometry x="480" y="330" width="80" height="80" as="geometry" />
        </mxCell>
        <mxCell id="XF5M5yh0gR44CFZkDUlB-106" value="" style="endArrow=none;html=1;rounded=0;entryX=0.408;entryY=0.99;entryDx=0;entryDy=0;entryPerimeter=0;exitX=0.604;exitY=0.015;exitDx=0;exitDy=0;exitPerimeter=0;" edge="1" parent="XF5M5yh0gR44CFZkDUlB-102" source="XF5M5yh0gR44CFZkDUlB-104" target="XF5M5yh0gR44CFZkDUlB-103">
          <mxGeometry width="50" height="50" relative="1" as="geometry">
            <mxPoint x="-211.38" y="330" as="sourcePoint" />
            <mxPoint x="-163.38" y="238" as="targetPoint" />
          </mxGeometry>
        </mxCell>
        <mxCell id="XF5M5yh0gR44CFZkDUlB-107" value="" style="endArrow=none;html=1;rounded=0;exitX=0.469;exitY=0.002;exitDx=0;exitDy=0;exitPerimeter=0;entryX=0.59;entryY=0.993;entryDx=0;entryDy=0;entryPerimeter=0;" edge="1" parent="XF5M5yh0gR44CFZkDUlB-102" source="XF5M5yh0gR44CFZkDUlB-105" target="XF5M5yh0gR44CFZkDUlB-103">
          <mxGeometry width="50" height="50" relative="1" as="geometry">
            <mxPoint x="-91.38" y="329" as="sourcePoint" />
            <mxPoint x="-32" y="239" as="targetPoint" />
          </mxGeometry>
        </mxCell>
        <mxCell id="XF5M5yh0gR44CFZkDUlB-108" value="1，2" style="ellipse;whiteSpace=wrap;html=1;aspect=fixed;fillColor=#66FF66;" vertex="1" parent="XF5M5yh0gR44CFZkDUlB-102">
          <mxGeometry y="330" width="80" height="80" as="geometry" />
        </mxCell>
        <mxCell id="XF5M5yh0gR44CFZkDUlB-109" value="3，4" style="ellipse;whiteSpace=wrap;html=1;aspect=fixed;fillColor=#66FF66;" vertex="1" parent="XF5M5yh0gR44CFZkDUlB-102">
          <mxGeometry x="120" y="330" width="80" height="80" as="geometry" />
        </mxCell>
        <mxCell id="XF5M5yh0gR44CFZkDUlB-110" value="3，5" style="ellipse;whiteSpace=wrap;html=1;aspect=fixed;fillColor=#CCFFCC;" vertex="1" parent="XF5M5yh0gR44CFZkDUlB-102">
          <mxGeometry x="120" y="160" width="80" height="80" as="geometry" />
        </mxCell>
        <mxCell id="XF5M5yh0gR44CFZkDUlB-111" value="" style="endArrow=none;html=1;rounded=0;entryX=0.282;entryY=0.947;entryDx=0;entryDy=0;entryPerimeter=0;exitX=0.596;exitY=0.007;exitDx=0;exitDy=0;exitPerimeter=0;" edge="1" parent="XF5M5yh0gR44CFZkDUlB-102" source="XF5M5yh0gR44CFZkDUlB-108" target="XF5M5yh0gR44CFZkDUlB-110">
          <mxGeometry width="50" height="50" relative="1" as="geometry">
            <mxPoint x="40" y="320" as="sourcePoint" />
            <mxPoint x="85" y="238" as="targetPoint" />
          </mxGeometry>
        </mxCell>
        <mxCell id="XF5M5yh0gR44CFZkDUlB-112" value="" style="endArrow=none;html=1;rounded=0;exitX=0.5;exitY=0;exitDx=0;exitDy=0;entryX=0.5;entryY=1;entryDx=0;entryDy=0;" edge="1" parent="XF5M5yh0gR44CFZkDUlB-102" source="XF5M5yh0gR44CFZkDUlB-109" target="XF5M5yh0gR44CFZkDUlB-110">
          <mxGeometry width="50" height="50" relative="1" as="geometry">
            <mxPoint x="147" y="330" as="sourcePoint" />
            <mxPoint x="100" y="239" as="targetPoint" />
          </mxGeometry>
        </mxCell>
        <mxCell id="XF5M5yh0gR44CFZkDUlB-113" value="5，6" style="ellipse;whiteSpace=wrap;html=1;aspect=fixed;fillColor=#66FF66;" vertex="1" parent="XF5M5yh0gR44CFZkDUlB-102">
          <mxGeometry x="240" y="330" width="80" height="80" as="geometry" />
        </mxCell>
        <mxCell id="XF5M5yh0gR44CFZkDUlB-114" value="" style="endArrow=none;html=1;rounded=0;exitX=0.395;exitY=0.014;exitDx=0;exitDy=0;exitPerimeter=0;entryX=0.711;entryY=0.947;entryDx=0;entryDy=0;entryPerimeter=0;" edge="1" parent="XF5M5yh0gR44CFZkDUlB-102" source="XF5M5yh0gR44CFZkDUlB-113" target="XF5M5yh0gR44CFZkDUlB-110">
          <mxGeometry width="50" height="50" relative="1" as="geometry">
            <mxPoint x="270" y="330" as="sourcePoint" />
            <mxPoint x="225" y="260" as="targetPoint" />
          </mxGeometry>
        </mxCell>
        <mxCell id="XF5M5yh0gR44CFZkDUlB-115" value="7" style="ellipse;whiteSpace=wrap;html=1;aspect=fixed;fillColor=#CCFFCC;" vertex="1" parent="XF5M5yh0gR44CFZkDUlB-102">
          <mxGeometry x="270" width="80" height="80" as="geometry" />
        </mxCell>
        <mxCell id="XF5M5yh0gR44CFZkDUlB-116" value="" style="endArrow=classic;startArrow=classic;html=1;rounded=0;exitX=1;exitY=0.5;exitDx=0;exitDy=0;entryX=0;entryY=0.5;entryDx=0;entryDy=0;" edge="1" parent="XF5M5yh0gR44CFZkDUlB-102">
          <mxGeometry width="50" height="50" relative="1" as="geometry">
            <mxPoint x="80" y="369.8000000000002" as="sourcePoint" />
            <mxPoint x="120" y="369.97000000000025" as="targetPoint" />
          </mxGeometry>
        </mxCell>
        <mxCell id="XF5M5yh0gR44CFZkDUlB-117" value="" style="endArrow=classic;startArrow=classic;html=1;rounded=0;exitX=1;exitY=0.5;exitDx=0;exitDy=0;entryX=0;entryY=0.5;entryDx=0;entryDy=0;" edge="1" parent="XF5M5yh0gR44CFZkDUlB-102">
          <mxGeometry width="50" height="50" relative="1" as="geometry">
            <mxPoint x="200" y="369.8000000000002" as="sourcePoint" />
            <mxPoint x="240" y="369.97000000000025" as="targetPoint" />
          </mxGeometry>
        </mxCell>
        <mxCell id="XF5M5yh0gR44CFZkDUlB-118" value="" style="endArrow=classic;startArrow=classic;html=1;rounded=0;exitX=1;exitY=0.5;exitDx=0;exitDy=0;entryX=0;entryY=0.5;entryDx=0;entryDy=0;" edge="1" parent="XF5M5yh0gR44CFZkDUlB-102">
          <mxGeometry width="50" height="50" relative="1" as="geometry">
            <mxPoint x="320" y="369.8000000000002" as="sourcePoint" />
            <mxPoint x="360" y="369.97000000000025" as="targetPoint" />
          </mxGeometry>
        </mxCell>
        <mxCell id="XF5M5yh0gR44CFZkDUlB-119" value="" style="endArrow=classic;startArrow=classic;html=1;rounded=0;exitX=1;exitY=0.5;exitDx=0;exitDy=0;entryX=0;entryY=0.5;entryDx=0;entryDy=0;" edge="1" parent="XF5M5yh0gR44CFZkDUlB-102">
          <mxGeometry width="50" height="50" relative="1" as="geometry">
            <mxPoint x="440" y="369.8000000000002" as="sourcePoint" />
            <mxPoint x="480" y="369.97000000000025" as="targetPoint" />
          </mxGeometry>
        </mxCell>
        <mxCell id="XF5M5yh0gR44CFZkDUlB-120" value="" style="endArrow=none;html=1;rounded=0;entryX=0.259;entryY=0.94;entryDx=0;entryDy=0;entryPerimeter=0;exitX=0.702;exitY=0.046;exitDx=0;exitDy=0;exitPerimeter=0;" edge="1" parent="XF5M5yh0gR44CFZkDUlB-102" source="XF5M5yh0gR44CFZkDUlB-110" target="XF5M5yh0gR44CFZkDUlB-115">
          <mxGeometry width="50" height="50" relative="1" as="geometry">
            <mxPoint x="180" y="160" as="sourcePoint" />
            <mxPoint x="292" y="65" as="targetPoint" />
          </mxGeometry>
        </mxCell>
        <mxCell id="XF5M5yh0gR44CFZkDUlB-121" value="" style="endArrow=none;html=1;rounded=0;exitX=0.228;exitY=0.077;exitDx=0;exitDy=0;exitPerimeter=0;entryX=0.717;entryY=0.947;entryDx=0;entryDy=0;entryPerimeter=0;" edge="1" parent="XF5M5yh0gR44CFZkDUlB-102" source="XF5M5yh0gR44CFZkDUlB-103" target="XF5M5yh0gR44CFZkDUlB-115">
          <mxGeometry width="50" height="50" relative="1" as="geometry">
            <mxPoint x="460.5" y="170" as="sourcePoint" />
            <mxPoint x="330" y="77" as="targetPoint" />
          </mxGeometry>
        </mxCell>
      </root>
    </mxGraphModel>
  </diagram>
</mxfile>
